<?xml version="1.0" encoding="UTF-8"?>
<!DOCTYPE svg PUBLIC "-//W3C//DTD SVG 1.1//EN" "http://www.w3.org/Graphics/SVG/1.1/DTD/svg11.dtd">
<!-- Creator: CorelDRAW 2018 (64-Bit) -->
<svg xmlns="http://www.w3.org/2000/svg" xml:space="preserve" width="6.124in" height="3.264in" version="1.1" style="shape-rendering:geometricPrecision; text-rendering:geometricPrecision; image-rendering:optimizeQuality; fill-rule:evenodd; clip-rule:evenodd"
viewBox="0 0 6124 3264"
 xmlns:xlink="http://www.w3.org/1999/xlink">
 <defs>
  <style type="text/css">
   <![CDATA[
    .fil3 {fill:black}
    .fil1 {fill:#6D6E70}
    .fil0 {fill:#ED2E24}
    .fil2 {fill:#FFFEFE}
   ]]>
  </style>
 </defs>
 <g id="Layer_x0020_1">
  <metadata id="CorelCorpID_0Corel-Layer"/>
  <path class="fil0" d="M4150.93 879.98l4.65 0.64c100.71,-26.08 107.09,-41.04 233.88,-49.03 384.48,-24.22 740.79,233.71 812.48,615.28 23.63,125.75 12.21,254.19 -29.89,373.7 -15.93,45.2 -34.78,76.5 -43.82,100.88l-0.37 1.71c30.75,7.92 70.82,11.34 102.89,14.97 111.3,12.6 225.36,10.76 336.83,-7.95 47.17,-7.92 90.64,-16.78 131.26,-30.51 61.64,-20.83 175.38,-53.89 201.52,-119.16 17.13,-42.78 -28.9,-86.32 -50.88,-103.03 -62.06,-47.18 -120.39,-43.92 -188.24,-51.53l-77.62 -3.26c-22.81,0.21 -52.24,-3.65 -74.56,-6.33 -22.86,-2.75 -47.3,-8.34 -67.52,-13.36 -164.16,-40.79 -66.26,-138.65 15.92,-207.74 46.67,-39.24 88.13,-69.66 136.52,-106.16l186.53 -137.05c35.75,-26.83 120.37,-92 156.24,-123.99 29.93,-26.69 103.72,-93.65 122.33,-117.47 37.71,-48.27 108.53,-135.7 27.15,-177.89 -64.23,-33.3 -224.66,29.75 -286.88,59.66 -10.11,4.86 -18.82,7.97 -27.96,12.48l-159.8 79.99c-49.29,24.64 -182.26,105.71 -225.1,94.38 -71.26,-18.85 46.88,-203.54 72.4,-244.25 5.64,-8.99 10.19,-15.03 16.2,-24.25l32.33 -48.56c22.18,-33.36 43.09,-64.49 64.72,-97.08 56.17,-84.62 211.83,-308.87 127.85,-382.24 -16.61,-14.51 -35.09,-17.21 -60.64,-12.93 -72.8,12.19 -163.26,91.73 -219.64,141.56l-41.99 38.91c-9.39,7.85 -12.76,10.04 -21.54,18.91 -30.9,31.19 -73.26,70.72 -99.78,102.46 -6.18,7.39 -13.15,13.43 -20.09,20.36 -49.55,49.48 -99.3,108.7 -155.93,164.76 -13.81,13.68 -54.56,45.77 -74.66,47.13 -67.29,4.54 -19.37,-197.17 -14.2,-228.49 16.63,-100.81 61.4,-330.2 27.61,-429.31 -15.86,-46.53 -63.96,-55.29 -104.48,-37.69 -61.04,26.52 -111.35,136.32 -143.07,197.86 -2.37,4.59 -3.9,8.52 -6.37,13.85l-25.94 54.95c-5.38,10.71 -7.83,16.32 -12.71,27.74l-49.08 112.72c-21.11,48.9 -132.19,323.31 -201.04,260.14 -12.8,-11.75 -21.13,-35.53 -25.39,-55.52 -21.71,-102 -3.9,-240.89 -50.86,-350.78 -19.31,-45.19 -50.8,-65.65 -92.9,-27.65 -0.48,0.43 -3.67,3.4 -4.47,4.2 -66.83,67.29 -125.87,243.02 -142.47,331.37 -7.98,42.44 -15.4,98.56 -15.22,146.59 0.1,26.94 -0.44,54.14 -0.11,81.03 0.29,23.61 5.89,50.81 5.89,74.99l0.01 -0.02z"/>
  <path class="fil1" d="M5127.85 1923.15l0.37 -1.71c-78,-8.52 -211.2,-52.89 -287.66,-87.13 -8.28,-3.71 -30.8,-10.26 -33.98,-19.22l-5.71 2.22c-10.66,15.65 -19.67,25.17 -31.35,39.8 -24.42,30.59 -87.09,77.6 -121.85,97.72 -54.5,31.57 -143.74,62.22 -225.2,66.57 -46.5,2.48 -96.17,-2.22 -134.56,-9.9 -72.52,-14.51 -145.44,-47.54 -201.78,-90 -51.14,-38.56 -107.17,-96.61 -136.48,-155.32 -60.39,-120.96 -73.52,-227.18 -34.41,-361.98 5.67,-19.54 13.37,-33.74 20.7,-51.53 37.48,-91.07 125.16,-174.82 213.58,-222.68 10.96,-5.93 39.76,-21.39 52.45,-21.71l1.32 -5.79c-14.09,-21.45 -52.66,-192.39 -47.72,-221.88l-4.65 -0.64c-0.58,0.41 -1.54,0.21 -1.83,1.07l-38.58 16.32c-49.94,22.41 -87.76,45.96 -132.31,75.7 -6.48,4.33 -10.95,6.85 -17.06,11.83 -43.4,35.33 -55.8,44.09 -96.96,85.06 -6.87,6.84 -7.61,8.59 -13.25,15.64 -26.33,32.91 -36.11,38.37 -65.15,82.21 -84.5,127.59 -123.43,247.22 -128.25,408.87l2.22 54.73c2.23,76.5 31.43,169.5 60.34,240.16 11.53,28.19 25.2,53.07 40.31,78.15 50.57,83.89 96.11,132.9 164.45,193.8 112.81,100.54 267.16,159.13 415.82,179.3 67.98,9.22 157.14,5.55 225.74,-4.22 128.49,-18.31 307.18,-100.19 385.34,-178 20.4,-20.31 49.34,-39.86 77.72,-75.41 26.77,-33.55 84.37,-103.68 98.35,-142.02l0.03 -0z"/>
  <path class="fil2" d="M4155.57 880.61c-4.94,29.49 33.63,200.43 47.72,221.88 20,-3.1 51.04,-16.34 76.16,-21.78 27.11,-5.87 57.25,-10.08 85.78,-11.35 264.49,-11.8 507.71,174.42 526.14,445.71 5.64,83.1 -12.02,167.47 -48.75,238.96 -11.72,22.82 -26.32,41.58 -36.06,61.08 3.18,8.96 25.7,15.51 33.98,19.22 76.46,34.23 209.66,78.61 287.66,87.13 9.04,-24.38 27.9,-55.68 43.82,-100.88 42.1,-119.51 53.52,-247.95 29.89,-373.7 -71.69,-381.57 -427.99,-639.5 -812.48,-615.28 -126.78,7.99 -133.17,22.94 -233.88,49.03l0.02 -0.02z"/>
  <path class="fil0" d="M4203.28 1102.49l-1.32 5.79c18.28,46.83 20.28,59.58 45.08,117.68 8.82,20.66 16.37,35.15 26.16,54.74 4.97,9.95 8.93,17.85 13.46,27 21.36,43.08 82.3,138.06 112.01,174.02 13.46,16.3 22.99,30.7 37.49,46.3 32.75,35.24 36.13,41.91 78,83.79 45.05,45.07 82.31,75.46 132.36,113.22 35.2,26.56 114.74,75.96 154.34,92.31l5.71 -2.22c9.73,-19.5 24.33,-38.26 36.06,-61.08 36.72,-71.48 54.39,-155.85 48.75,-238.96 -18.43,-271.29 -261.65,-457.5 -526.14,-445.71 -28.54,1.27 -58.68,5.49 -85.78,11.35 -25.13,5.44 -56.17,18.68 -76.16,21.78l-0.01 -0.02z"/>
  <path class="fil3" d="M2640.19 1810.46c-1.66,-74.64 -118.43,-72.92 -118.43,2.89l0 456.56c0,58.23 83.81,79.19 111.59,27.83 12.86,-23.78 6.84,-201.44 6.84,-235.89 0,-66.75 -2.83,-141.68 58.94,-183.76 63.06,-42.96 192.91,-31.42 192.38,108.63l-0.01 239.85c0,28.93 -1.24,51.83 9.47,71.44 20.53,37.58 79.12,40.28 102.11,-0.28 10.28,-18.13 6.86,-47.09 6.86,-74.05 0,-33.57 -2.13,-216.54 1.56,-241.16 4.68,-31.15 6.89,-39.61 18.61,-62.3 8.54,-16.53 22.65,-33.48 37.65,-43.24 41.28,-26.84 103.3,-28.67 145.01,-0.7 17.2,11.53 26.78,25.16 36,44.89 17.05,36.47 12.46,94.19 12.46,146.46 0,52.98 0,105.95 0,158.93 0,29.46 -2.28,52.39 9.11,71.79 29.32,49.93 109.31,30.17 109.31,-25.56l0 -306.3c0,-88.92 -42.31,-160 -113.57,-195.57 -63.96,-31.93 -162.39,-28.3 -225.34,6.8 -13.87,7.73 -61.03,42.04 -65.48,58.74l-5.78 0c-2.4,-9 -5.89,-10.25 -11.51,-17.38 -29.98,-38.05 -91.58,-69.31 -141.59,-69.31 -64.74,0 -93.07,0.92 -148.54,39.23 -10.66,7.36 -14.98,18.06 -27.66,21.45l0.02 0.02z"/>
  <path class="fil3" d="M1608.95 2781.37c64.46,0 100.12,12.47 145.17,57.06 107.97,106.86 38.72,327.26 -133.61,327.26 -26.79,0 -54.34,-7.22 -73.24,-16.31 -25.4,-12.22 -34.61,-20.96 -53.16,-39.29 -102.87,-101.65 -47.35,-328.72 114.85,-328.72l-0.01 0zm193.54 -11.56c-18.26,-12.22 -32.57,-36.61 -78.89,-59.79 -105.84,-52.96 -228.58,-26.81 -313.24,57.62 -114.85,114.53 -115.09,363.56 69.55,463.57 87.01,47.13 219.55,40.04 288.7,-27.17 11.69,-11.36 20.81,-23.82 33.88,-32.57 0,35.45 -4.93,83.8 57.77,83.8 23.44,0 49.11,-21.11 49.11,-43.35l0 -696.4c0,-49.44 -93.48,-63.72 -105.82,-4.72 -3.01,14.37 -1.06,233.55 -1.06,259.01l-0.01 0z"/>
  <path class="fil3" d="M791.48 1850.91c23,0 44.2,5.47 61.96,13.15 34.57,14.94 55.26,41.55 70.98,73.47 4.06,8.23 6.54,14.33 9.68,24.99 2.84,9.66 4.24,23.02 7.58,29.98l-306.19 0c9.55,-41 24.1,-71.89 49.78,-97.57 24.33,-24.34 58.44,-44.02 106.21,-44.02l0 0zm-277.31 176.26c0,97.89 23.88,164.19 81.6,221.78 93.69,93.48 236.4,108.57 350.73,51.78 23.96,-11.9 90.5,-53.8 90.5,-82.84l0 -14.44c0,-24.67 -25.2,-43.35 -57.77,-43.35 -40.58,0 -61.26,69.35 -176.2,69.35 -20.69,0 -49,-5.61 -63.52,-11.59 -37.89,-15.61 -63.01,-36.87 -83.72,-72.29 -5.98,-10.24 -19.12,-43.55 -20.3,-57.71l352.43 0.02c22.52,0.13 33.96,-0.02 48.39,-9.39 28.24,-18.33 23.81,-39.67 23.81,-68.65 0,-79.52 -54.95,-175.27 -107.39,-210.43 -132.26,-88.65 -300.16,-58.85 -390.67,73.39 -8.43,12.31 -16.06,29.41 -22.89,43.57 -12.9,26.76 -25,72.37 -25,110.81l0 -0.01z"/>
  <path class="fil3" d="M1357.65 1599.52l0 664.61c0,58.89 66.33,85.03 104.78,41.24 12.7,-14.46 13.82,-26.72 13.67,-52.78 -0.12,-20.94 -0.67,-43.04 -0.26,-63.83 0.38,-19.11 4.01,-16.52 25.52,-38.04 5.93,-5.94 9.81,-10.13 15.9,-15.88l51.26 -46.97 181.23 223.25c20.43,20.56 58.58,21.66 82.49,0.11 20.74,-18.69 22.67,-54.07 -0.18,-79.56 -9.85,-10.99 -16.68,-20.34 -26.02,-31.77l-153.76 -190.05c10.1,-15.09 31.63,-30.19 48.38,-46.96 8.41,-8.41 14.72,-14.69 23.11,-23.12l26.04 -23.08c16.9,-15.64 30.69,-32.11 47.59,-47.75 13.77,-12.74 39.76,-29.53 39.76,-58.48 0,-47.37 -54.26,-75.25 -96.45,-38.7l-19.07 18.48c-48.49,45.7 -230.09,232.36 -245.55,242.71l0 -413.22c0.07,-29 0.97,-39.85 -11.81,-57.54 -30.3,-41.94 -106.63,-26.9 -106.63,37.31l0 0.02z"/>
  <path class="fil3" d="M2166.46 2226.56c-60.5,0 -97.91,-12.93 -139.39,-54.17 -74.34,-73.88 -66.28,-216.47 11.03,-276.52 19.73,-15.32 13.63,-12.65 40.69,-25.76 109.03,-52.82 258.1,24.8 258.1,171.5 0,75.1 -40.48,137.3 -99.1,166.7 -17.69,8.87 -46.13,18.23 -71.32,18.23l-0.01 0.02zm-311.97 -187.82c0,173.07 135.53,294.74 303.3,294.74 85.65,0 164.39,-38.34 207.26,-81.63 66.02,-66.65 90.26,-125.53 90.26,-224.68 0,-82.29 -42.8,-150.95 -84.48,-192.89 -44.62,-44.89 -124.78,-84.52 -192.82,-84.52 -60.87,0 -99.42,0.28 -156,28.89 -101.48,51.3 -167.53,146.26 -167.53,260.08l0.01 0.01z"/>
  <path class="fil3" d="M3668.52 2931.63l-320.63 0c1.52,-18.26 11.4,-44.87 18.27,-59.74 8.1,-17.54 18.94,-33.74 31.49,-46.52 62.29,-63.44 160.93,-66.17 222.54,-4.33 14.04,14.09 22.09,28.83 31.05,46.96 6.56,13.26 17.28,44.14 17.28,63.62l0 0.01zm-430.4 20.23c0,62.22 0.18,94.3 26.94,152.2 13.24,28.67 36.43,60.53 57.49,81.19 24.11,23.65 53.11,40.81 84.09,54.58 83.85,37.28 180.24,28.85 259,-7.69 7.45,-3.46 19.56,-10.93 27.21,-16.12 9.14,-6.21 16.77,-12.39 24.84,-18.5 66.99,-50.68 29.86,-92.04 -2.64,-98.86 -50.29,-10.56 -65.21,69.91 -190.96,69.91 -49.93,0 -93.96,-20.02 -119.2,-45.47 -36.65,-36.96 -44.63,-54.53 -57.01,-107.68l358.19 0c51.71,0.13 72.21,-10.91 72.21,-63.57 0,-144.08 -112.17,-268.74 -259.97,-268.74 -80.42,0 -144.19,27.42 -197.15,80.19 -22.63,22.55 -41.7,48.73 -56.1,79.69 -12.35,26.55 -26.94,71.66 -26.94,108.86l0.01 0z"/>
  <path class="fil3" d="M4766.2 3174.35c-166.85,0 -171.77,-190.72 5.78,-190.72 45.03,0 55.33,-0.73 101.29,5.6 21.63,2.98 40.99,10.12 60.48,11.74 0,54.96 3.69,87.53 -41.11,129.35 -25.61,23.91 -77.45,44.02 -126.43,44.02l-0.01 0zm-187.76 -410.33c0,49.96 36.33,61.23 80.88,43.35 79.51,-31.93 229.44,-46.41 264.04,53.73 2.65,7.69 5.89,18.52 6.81,25l1.25 23.58c-0.28,9.69 -2.54,4.78 -25.3,0.48 -12.02,-2.28 -20.15,-3.4 -32.19,-5.39 -38.89,-6.41 -52.04,-3.59 -68.96,-6.15 -69.2,-10.47 -173.83,13.2 -225.81,65.5 -70.46,70.89 -61.39,191.46 15.33,249.07 85.26,64.04 217.7,64.23 305.2,5.11 13.44,-9.08 25.61,-21.48 34.05,-23.73 0,22.07 -1.31,29.63 9.38,42.63 29.07,35.32 94.61,17.92 94.61,-33.96l0 -283.18c0,-37.17 -5.33,-69.7 -14.76,-97.93 -4.59,-13.75 -9.85,-25.4 -17.54,-37.35 -22.7,-35.31 -53.22,-60.63 -93.93,-76.53 -111.35,-43.48 -333.06,-9.46 -333.06,55.77l-0.01 -0.01z"/>
  <path class="fil3" d="M2296.44 3165.69c-35.43,0 -58.08,-1.74 -89.61,-17.27 -10.06,-4.95 -17.61,-9.53 -27.14,-16.19 -6.81,-4.76 -7.16,-5.74 -12.86,-10.25 -38.54,-30.56 -66.81,-85.84 -66.81,-135.44 0,-53 3.94,-87.62 35.86,-131.73 56.27,-77.76 166.03,-97.5 246.05,-49.14 18.83,11.38 24.72,18.19 39.46,32.76 47.31,46.76 69.38,131.9 39.34,211.31 -22.12,58.47 -83.64,115.95 -164.28,115.95l-0.01 0zm-306.19 -210.94c0,63.8 0.34,91.46 30.36,151.67 20.42,40.96 46.71,68.73 80.28,95.96 131.72,106.88 370.43,74.38 456.53,-105.04 38.26,-79.73 35.55,-164.46 2.35,-244.19 -24.26,-58.26 -75.85,-108.8 -131.92,-136.77 -5.31,-2.65 -8.69,-3.81 -13.91,-6.31 -72.24,-34.63 -172.92,-35.78 -246.52,-2.87 -65.26,29.18 -114.51,70.56 -147.36,135.77 -13.59,26.97 -29.81,72.86 -29.81,111.77l0 0.01z"/>
  <path class="fil3" d="M-0 1628.41c0,28.39 23.44,54.9 51.99,54.9l199.31 0 0 586.59c0,50.13 66.6,76.66 103.41,39.87 10.84,-10.84 17.92,-24.73 17.92,-45.65l0 -580.81 199.31 0c26.43,0 52,-26.14 52,-52.01 0,-29.91 -27.87,-57.79 -57.77,-57.79l-508.39 0c-29.67,0 -57.77,24.7 -57.77,54.9l-0.01 0z"/>
  <path class="fil3" d="M863.7 2758.26c0,-31.54 -3.13,-58.24 -43,-67 -15.08,-3.31 -29.7,-0.33 -41.78,8.2 -9.48,6.7 -22.1,21.25 -22.1,35.68l0 471.01c0,58.44 88.21,66.7 104.6,15.06 4.75,-14.97 2.28,-223.2 2.28,-249.11 0,-67.93 2.07,-95.22 32.15,-135.43 52.26,-69.87 179.44,-77.77 231.97,-1.64 23.79,34.47 24.74,82.21 24.74,139.96 0,27.8 -2.98,226.48 1.61,244 14.13,53.85 105.26,46.69 105.26,-12.83l0 -312.07c0,-175.49 -187.64,-254.52 -324.52,-188.83 -43.46,20.86 -52.15,40.24 -71.21,53.02l0 -0.01z"/>
  <path class="fil3" d="M2770.17 2758.26c0,-22.86 0.57,-31.59 -9.02,-45.88 -7.23,-10.76 -20.24,-18.81 -36.37,-21.61 -29.83,-5.19 -61.48,16.94 -61.48,50.15l0 465.22c0,58.44 88.21,66.7 104.6,15.06 4.75,-14.97 2.28,-223.2 2.28,-249.11 0,-66.26 3.82,-96.85 31.72,-135.87 46.07,-64.41 177.35,-81.57 232.35,-1.17 25.66,37.5 24.77,78.87 24.77,139.93 0,27.81 -2.98,226.46 1.62,244 14.69,56 105.26,41.91 105.26,-7.06l0 -320.74c0,-57.18 -24.41,-109.5 -62.82,-148.1 -74.7,-75.05 -211.69,-79.7 -299.11,-14.58 -13.61,10.14 -22.21,21.98 -33.81,29.76l0 -0.01z"/>
  <path class="fil3" d="M4150.93 3096.33c0,90.09 -130.21,79.7 -203.47,50.39 -16.38,-6.55 -28.57,-12.41 -42.64,-20.92 -8.76,-5.3 -31.86,-20.81 -42.75,-20.81 -29.23,0 -51.99,17.97 -51.99,49.12 0,38.83 59.64,64.44 90.73,76.84 110.13,43.89 269.09,51.68 334.52,-61.76 15.16,-26.28 19.59,-54.29 19.59,-87.31 0,-122.33 -152.47,-147.07 -235.52,-174.72 -39.87,-13.28 -79.34,-27.5 -79.34,-68 0,-42.56 50.95,-60.68 92.44,-60.68 40.15,0 85.26,13.48 119.42,30.8 19.3,9.79 30.48,18.37 55.58,11.48 39.86,-10.94 47.83,-66.43 3.22,-90.53 -13.83,-7.47 -34.1,-15.96 -48.57,-20.77 -287.63,-95.5 -376.79,123.11 -304.69,218.11 55.07,72.56 158.06,77.81 237.4,109.27 24.33,9.65 56.06,27.57 56.06,59.5l0 0z"/>
  <path class="fil3" d="M1132.34 1593.74l0 676.17c0,19.23 7.42,29.48 17.94,39.85 7.24,7.13 7.24,8.28 16.98,11.92 47.36,17.68 83.52,-14.75 83.52,-57.54l0 -661.72c0,-86.15 -118.43,-80.21 -118.43,-8.67l-0.01 -0.01z"/>
  <path class="fil3" d="M511.28 2564.65l0 629.94c0,60.32 64.85,79.75 99.04,41.28 10.02,-11.27 13.62,-26.83 13.62,-47.06l0 -618.38c0,-37.75 -17.7,-65.22 -52.94,-68.18 -15.97,-1.34 -33.74,7.22 -42.63,15.92 -10.57,10.34 -17.09,25.92 -17.09,46.48l0 0z"/>
  <path class="fil3" d="M4344.46 2740.92l0 462.33c0,63.39 109.77,81.6 109.77,-14.44l0 -430.55c0,-98.8 -109.77,-77.9 -109.77,-17.34z"/>
 </g>
</svg>
